<svg width="86" height="32" viewBox="0 0 86 32" fill="none" xmlns="http://www.w3.org/2000/svg">
<g clip-path="url(#clip0_7345_155481)">
<path fill-rule="evenodd" clip-rule="evenodd" d="M0 16C0 7.1804 7.1804 0 16 0C24.8196 0 32 7.1804 32 16C32 24.8196 24.8196 32 16 32C7.1804 32 0 24.8196 0 16ZM1.60356 16C1.60356 23.9376 8.06236 30.3964 16 30.3964C23.9376 30.3964 30.3964 23.9376 30.3964 16C30.3964 8.06236 23.9376 1.60356 16 1.60356C8.06236 1.60356 1.60356 8.06236 1.60356 16ZM15.9993 8.54346C18.075 8.54346 19.8211 9.29179 21.104 10.7261V8.85526H23.0015V23.0824H21.104V21.1849C19.3668 23.2161 17.006 23.4566 15.9993 23.4566C12.516 23.4566 8.99707 20.882 8.99707 15.9644C8.99707 11.5991 11.8746 8.54346 15.9993 8.54346ZM10.9748 15.8664C10.9748 18.735 12.7387 21.6392 16.1062 21.6392H16.1151C19.5984 21.6392 21.1842 18.6459 21.1842 15.8664C21.1842 11.8308 18.1285 10.3608 16.0795 10.3608C13.5405 10.3608 10.9748 12.2495 10.9748 15.8664Z" fill="#171010"/>
<path fill-rule="evenodd" clip-rule="evenodd" d="M68.5079 6.99316H66.5659V10.0399H65.0068V11.8929H66.5659V24.6145H68.5079V11.8929H70.8598V10.0399H68.5079V6.99316ZM47.269 9.71973C49.3893 9.71973 51.1799 10.4948 52.4895 11.9558V10.0404H54.4316V24.6061H52.4895V22.664C50.7167 24.7487 48.2935 24.9892 47.269 24.9892C43.7145 24.9892 40.1064 22.3522 40.1064 17.3188C40.1064 12.8467 43.0463 9.71973 47.269 9.71973ZM42.1198 17.2119C42.1198 20.1505 43.9267 23.1248 47.3715 23.1273C50.9408 23.1247 52.5608 20.0526 52.5608 17.2119C52.5608 13.0872 49.4427 11.5816 47.3403 11.5816C44.7479 11.5816 42.1198 13.5148 42.1198 17.2119ZM59.4206 11.1095C60.1066 10.2275 61.1133 9.71973 62.2536 9.71973H62.2625C62.5387 9.71973 63.2424 9.75536 63.8839 10.0939L64.1333 10.2275L63.1444 11.9914L62.8861 11.8044C62.8059 11.742 62.5921 11.5816 62.013 11.5816C59.7146 11.5816 59.4206 14.3701 59.4206 16.8021V24.6061H57.4785V10.0315H59.4206V11.1095ZM78.1465 9.71973C82.1732 9.71973 85.0953 12.9981 85.0953 17.497L85.1131 17.4881V17.7643H73.0418C73.1665 20.8378 75.4115 23.1184 78.3603 23.1184C80.3826 23.1184 82.0841 22.0137 83.0195 20.0805L83.1532 19.8133L84.8191 20.7932L84.6944 21.0249C84.0708 22.2186 82.191 24.9892 78.2534 24.9892C73.9238 24.9892 71.0195 21.9335 71.0195 17.3901C71.0195 13.5772 73.4605 9.71973 78.1465 9.71973ZM77.8169 11.5906C75.3492 11.5906 73.3447 13.3456 72.8547 15.9113H82.7166C82.2712 13.3545 80.2846 11.5906 77.8169 11.5906Z" fill="#171010"/>
</g>
<defs>
<clipPath id="clip0_7345_155481">
<rect width="85.0958" height="32" fill="white"/>
</clipPath>
</defs>
</svg>
