<svg width="60" height="18" viewBox="0 0 60 18" fill="none" xmlns="http://www.w3.org/2000/svg">
<path d="M57.7778 17.3574H2.22222C1.00056 17.3574 0 16.3805 0 15.1878V2.16988C0 0.977119 1.00056 0.000234381 2.22222 0.000234381H57.7778C58.9994 0.000234381 60 0.977119 60 2.16988V15.1878C60 16.3805 58.9994 17.3574 57.7778 17.3574Z" fill="black"/>
<path d="M57.7778 0.34792C58.8067 0.34792 59.6439 1.16534 59.6439 2.16988V15.1878C59.6439 16.1923 58.8067 17.0097 57.7778 17.0097H2.22222C1.19333 17.0097 0.356111 16.1923 0.356111 15.1878V2.16988C0.356111 1.16534 1.19333 0.34792 2.22222 0.34792H57.7778ZM57.7778 0.000234381H2.22222C1.00056 0.000234381 0 0.977119 0 2.16988V15.1878C0 16.3805 1.00056 17.3574 2.22222 17.3574H57.7778C58.9994 17.3574 60 16.3805 60 15.1878V2.16988C60 0.977119 58.9994 0.000234381 57.7778 0.000234381Z" fill="#A6A6A6"/>
<path d="M21.0749 4.44563C21.0749 4.80796 20.9638 5.09815 20.745 5.31458C20.4933 5.57114 20.1655 5.70023 19.7638 5.70023C19.38 5.70023 19.0522 5.56897 18.7833 5.31024C18.5138 5.04771 18.3794 4.72552 18.3794 4.33986C18.3794 3.95421 18.5138 3.63201 18.7833 3.37166C19.0522 3.11076 19.38 2.97949 19.7638 2.97949C19.955 2.97949 20.1372 3.018 20.3111 3.0896C20.4844 3.16174 20.6255 3.25938 20.7277 3.37979L20.4955 3.60869C20.3172 3.40312 20.0744 3.30169 19.7638 3.30169C19.4838 3.30169 19.2411 3.39715 19.035 3.58971C18.8311 3.7828 18.7288 4.03286 18.7288 4.33986C18.7288 4.64687 18.8311 4.89909 19.035 5.09219C19.2411 5.28257 19.4838 5.38021 19.7638 5.38021C20.0611 5.38021 20.3111 5.28257 20.5083 5.09002C20.6383 4.96255 20.7122 4.78681 20.7316 4.56225H19.7638V4.24874H21.0549C21.0705 4.31654 21.0749 4.38217 21.0749 4.44563Z" fill="white" stroke="white" stroke-width="0.16" stroke-miterlimit="10"/>
<path d="M23.1225 3.35805H21.9097V4.18252H23.0031V4.49604H21.9097V5.3205H23.1225V5.63998H21.5664V3.03857H23.1225V3.35805Z" fill="white" stroke="white" stroke-width="0.16" stroke-miterlimit="10"/>
<path d="M24.5682 5.63998H24.2248V3.35805H23.481V3.03857H25.3126V3.35805H24.5682V5.63998Z" fill="white" stroke="white" stroke-width="0.16" stroke-miterlimit="10"/>
<path d="M26.6382 5.63998V3.03857H26.981V5.63998H26.6382Z" fill="white" stroke="white" stroke-width="0.16" stroke-miterlimit="10"/>
<path d="M28.5008 5.63998H28.1602V3.35805H27.4136V3.03857H29.2475V3.35805H28.5008V5.63998Z" fill="white" stroke="white" stroke-width="0.16" stroke-miterlimit="10"/>
<path d="M32.715 5.3059C32.4523 5.56897 32.1267 5.70023 31.7384 5.70023C31.3478 5.70023 31.0223 5.56897 30.7595 5.3059C30.4973 5.04337 30.3667 4.72118 30.3667 4.33986C30.3667 3.95855 30.4973 3.63635 30.7595 3.37383C31.0223 3.11076 31.3478 2.97949 31.7384 2.97949C32.1245 2.97949 32.45 3.11076 32.7128 3.376C32.9773 3.64069 33.1078 3.96072 33.1078 4.33986C33.1078 4.72118 32.9773 5.04337 32.715 5.3059ZM31.0134 5.08785C31.2111 5.28257 31.4517 5.38021 31.7384 5.38021C32.0228 5.38021 32.2656 5.28257 32.4611 5.08785C32.6584 4.89312 32.7584 4.64307 32.7584 4.33986C32.7584 4.03665 32.6584 3.7866 32.4611 3.59188C32.2656 3.39715 32.0228 3.29952 31.7384 3.29952C31.4517 3.29952 31.2111 3.39715 31.0134 3.59188C30.8161 3.7866 30.7161 4.03665 30.7161 4.33986C30.7161 4.64307 30.8161 4.89312 31.0134 5.08785Z" fill="white" stroke="white" stroke-width="0.16" stroke-miterlimit="10"/>
<path d="M33.5898 5.63998V3.03857H34.0065L35.3021 5.06177H35.3171L35.3021 4.56167V3.03857H35.6448V5.63998H35.2871L33.9304 3.51698H33.9154L33.9304 4.01926V5.63998H33.5898Z" fill="white" stroke="white" stroke-width="0.16" stroke-miterlimit="10"/>
<path d="M30.282 9.43893C29.2381 9.43893 28.3853 10.2146 28.3853 11.2848C28.3853 12.3463 29.2381 13.13 30.282 13.13C31.3281 13.13 32.1809 12.3463 32.1809 11.2848C32.1809 10.2146 31.3281 9.43893 30.282 9.43893ZM30.282 12.4032C29.7092 12.4032 29.2164 11.9416 29.2164 11.2848C29.2164 10.6192 29.7092 10.1658 30.282 10.1658C30.8547 10.1658 31.3497 10.6192 31.3497 11.2848C31.3497 11.9416 30.8547 12.4032 30.282 12.4032ZM26.1436 9.43893C25.0975 9.43893 24.247 10.2146 24.247 11.2848C24.247 12.3463 25.0975 13.13 26.1436 13.13C27.1892 13.13 28.0403 12.3463 28.0403 11.2848C28.0403 10.2146 27.1892 9.43893 26.1436 9.43893ZM26.1436 12.4032C25.5703 12.4032 25.0759 11.9416 25.0759 11.2848C25.0759 10.6192 25.5703 10.1658 26.1436 10.1658C26.7164 10.1658 27.2092 10.6192 27.2092 11.2848C27.2092 11.9416 26.7164 12.4032 26.1436 12.4032ZM21.2192 10.0047V10.789H23.1375C23.0814 11.2273 22.9314 11.5495 22.7014 11.774C22.4214 12.0452 21.9853 12.3463 21.2192 12.3463C20.0386 12.3463 19.1142 11.416 19.1142 10.2634C19.1142 9.11077 20.0386 8.18053 21.2192 8.18053C21.8575 8.18053 22.322 8.42408 22.6647 8.73976L23.2309 8.18704C22.7514 7.74009 22.1136 7.39675 21.2192 7.39675C19.6003 7.39675 18.2397 8.68281 18.2397 10.2634C18.2397 11.844 19.6003 13.13 21.2192 13.13C22.0942 13.13 22.7514 12.8502 23.2681 12.3251C23.7975 11.8082 23.9625 11.0814 23.9625 10.4945C23.9625 10.3122 23.947 10.1446 23.9192 10.0047H21.2192ZM41.3558 10.6127C41.1997 10.1999 40.7181 9.43893 39.737 9.43893C38.7647 9.43893 37.9553 10.1869 37.9553 11.2848C37.9553 12.3186 38.7564 13.13 39.8303 13.13C40.6986 13.13 41.1997 12.6131 41.4058 12.3121L40.7614 11.8928C40.5464 12.1998 40.2536 12.4032 39.8303 12.4032C39.4097 12.4032 39.1081 12.215 38.9147 11.844L41.4431 10.8226L41.3558 10.6127ZM38.7781 11.2273C38.7564 10.5156 39.3442 10.1511 39.7653 10.1511C40.0953 10.1511 40.3753 10.3122 40.4686 10.5427L38.7781 11.2273ZM36.7231 13.0178H37.5542V7.59364H36.7231V13.0178ZM35.362 9.85008H35.3342C35.1475 9.6342 34.7914 9.43893 34.3403 9.43893C33.3936 9.43893 32.5281 10.2504 32.5281 11.2907C32.5281 12.3251 33.3936 13.13 34.3403 13.13C34.7914 13.13 35.1475 12.9331 35.3342 12.7108H35.362V12.9755C35.362 13.6811 34.9758 14.0603 34.3531 14.0603C33.8453 14.0603 33.5303 13.7023 33.4003 13.4012L32.6775 13.6958C32.8859 14.185 33.4375 14.7871 34.3531 14.7871C35.3275 14.7871 36.1497 14.2273 36.1497 12.8653V9.55121H35.362V9.85008ZM34.4114 12.4032C33.8386 12.4032 33.3592 11.9351 33.3592 11.2907C33.3592 10.6404 33.8386 10.1658 34.4114 10.1658C34.9759 10.1658 35.4209 10.6404 35.4209 11.2907C35.4209 11.9351 34.9759 12.4032 34.4114 12.4032ZM45.247 7.59364H43.2592V13.0178H44.0881V10.9626H45.247C46.1675 10.9626 47.0703 10.3122 47.0703 9.27783C47.0703 8.24399 46.1653 7.59364 45.247 7.59364ZM45.2686 10.2081H44.0881V8.34814H45.2686C45.8875 8.34814 46.2408 8.84987 46.2408 9.27783C46.2408 9.69766 45.8875 10.2081 45.2686 10.2081ZM50.3925 9.42862C49.7936 9.42862 49.1708 9.68681 48.9147 10.2591L49.6503 10.5601C49.8086 10.2591 50.0997 10.1614 50.4075 10.1614C50.8375 10.1614 51.2736 10.4136 51.2803 10.859V10.9159C51.1303 10.8313 50.8092 10.706 50.4142 10.706C49.622 10.706 48.8147 11.1318 48.8147 11.9264C48.8147 12.6533 49.4636 13.1214 50.1931 13.1214C50.7508 13.1214 51.0586 12.8756 51.252 12.5898H51.2803V13.0091H52.0808V10.9284C52.0808 9.96669 51.3453 9.42862 50.3925 9.42862ZM50.2925 12.401C50.0214 12.401 49.6436 12.2698 49.6436 11.9416C49.6436 11.5218 50.1147 11.3607 50.5225 11.3607C50.8875 11.3607 51.0586 11.4393 51.2803 11.5429C51.2153 12.0452 50.7725 12.401 50.2925 12.401ZM54.9975 9.54741L54.0447 11.8988H54.0164L53.0314 9.54741H52.1375L53.6175 12.8333L52.7731 14.6618H53.6392L55.9197 9.54741H54.9975ZM47.5258 13.0178H48.357V7.59364H47.5258V13.0178Z" fill="white"/>
<path d="M4.63726 3.2716C4.50671 3.40503 4.43115 3.61278 4.43115 3.88181V13.4782C4.43115 13.7472 4.50671 13.955 4.63726 14.0884L4.66949 14.1177L10.1773 8.74237V8.61545L4.66949 3.24014L4.63726 3.2716Z" fill="url(#paint0_linear_8123_42422)"/>
<path d="M12.0116 10.5352L10.1777 8.74248V8.61556L12.0138 6.82289L12.055 6.84621L14.2294 8.05416C14.85 8.39697 14.85 8.96108 14.2294 9.30605L12.055 10.5118L12.0116 10.5352Z" fill="url(#paint1_linear_8123_42422)"/>
<path d="M12.0554 10.5116L10.1782 8.6788L4.63818 14.0883C4.84429 14.2998 5.18041 14.3253 5.56263 14.1138L12.0554 10.5116Z" fill="url(#paint2_linear_8123_42422)"/>
<path d="M12.0554 6.8459L5.56263 3.24374C5.18041 3.03437 4.84429 3.05986 4.63818 3.2714L10.1782 8.67871L12.0554 6.8459Z" fill="url(#paint3_linear_8123_42422)"/>
<defs>
<linearGradient id="paint0_linear_8123_42422" x1="9.68824" y1="13.5781" x2="2.40794" y2="6.1214" gradientUnits="userSpaceOnUse">
<stop stop-color="#00A0FF"/>
<stop offset="0.0066" stop-color="#00A1FF"/>
<stop offset="0.2601" stop-color="#00BEFF"/>
<stop offset="0.5122" stop-color="#00D2FF"/>
<stop offset="0.7604" stop-color="#00DFFF"/>
<stop offset="1" stop-color="#00E3FF"/>
</linearGradient>
<linearGradient id="paint1_linear_8123_42422" x1="15.0375" y1="8.67841" x2="4.28329" y2="8.67841" gradientUnits="userSpaceOnUse">
<stop stop-color="#FFE000"/>
<stop offset="0.4087" stop-color="#FFBD00"/>
<stop offset="0.7754" stop-color="#FFA500"/>
<stop offset="1" stop-color="#FF9C00"/>
</linearGradient>
<linearGradient id="paint2_linear_8123_42422" x1="11.0346" y1="7.68245" x2="1.16195" y2="-2.42945" gradientUnits="userSpaceOnUse">
<stop stop-color="#FF3A44"/>
<stop offset="1" stop-color="#C31162"/>
</linearGradient>
<linearGradient id="paint3_linear_8123_42422" x1="3.24365" y1="17.2809" x2="7.65224" y2="12.7655" gradientUnits="userSpaceOnUse">
<stop stop-color="#32A071"/>
<stop offset="0.0685" stop-color="#2DA771"/>
<stop offset="0.4762" stop-color="#15CF74"/>
<stop offset="0.8009" stop-color="#06E775"/>
<stop offset="1" stop-color="#00F076"/>
</linearGradient>
</defs>
</svg>
