<svg width="60" height="18" viewBox="0 0 60 18" fill="none" xmlns="http://www.w3.org/2000/svg">
<path d="M59.6663 15.334C59.6663 16.2577 58.9025 17.0059 57.9578 17.0059H2.04382C1.09951 17.0059 0.333008 16.2577 0.333008 15.334V2.00078C0.333008 1.07751 1.09951 0.32666 2.04382 0.32666H57.9573C58.9025 0.32666 59.6659 1.07751 59.6659 2.00078L59.6663 15.334Z" fill="black"/>
<path d="M57.7778 0.346885C58.8067 0.346885 59.6439 1.16318 59.6439 2.16634V15.1663C59.6439 16.1695 58.8067 16.9858 57.7778 16.9858H2.22222C1.19333 16.9858 0.356111 16.1695 0.356111 15.1663V2.16634C0.356111 1.16318 1.19333 0.346885 2.22222 0.346885H57.7778ZM57.7778 -0.000322636H2.22222C1.00056 -0.000322636 0 0.975219 0 2.16634V15.1663C0 16.3575 1.00056 17.333 2.22222 17.333H57.7778C58.9994 17.333 60 16.3575 60 15.1663V2.16634C60 0.975219 58.9994 -0.000322636 57.7778 -0.000322636Z" fill="#A6A6A6"/>
<path d="M13.3905 8.57288C13.3776 7.17625 14.5634 6.49678 14.6176 6.46515C13.946 5.51051 12.9051 5.38008 12.5394 5.36968C11.6651 5.27998 10.8171 5.87971 10.3718 5.87971C9.91759 5.87971 9.23181 5.37835 8.4927 5.39308C7.54159 5.40738 6.65181 5.94428 6.16381 6.77801C5.1567 8.47798 5.90781 10.9761 6.8727 12.3502C7.35537 13.0232 7.91937 13.7746 8.65759 13.7482C9.37981 13.7191 9.64959 13.2992 10.5211 13.2992C11.3847 13.2992 11.638 13.7482 12.3909 13.7313C13.166 13.7191 13.654 13.0553 14.1198 12.3762C14.6776 11.6049 14.9016 10.8453 14.9105 10.8063C14.8923 10.8002 13.4051 10.2468 13.3905 8.57288Z" fill="white"/>
<path d="M11.9683 4.46575C12.3567 3.99211 12.6225 3.34775 12.5487 2.69385C11.9865 2.71811 11.2834 3.07301 10.8785 3.53625C10.5203 3.94445 10.2003 4.61351 10.2829 5.24271C10.9145 5.28865 11.5629 4.93201 11.9683 4.46575Z" fill="white"/>
<path d="M23.8425 13.6516H22.8331L22.2802 11.9577H20.3585L19.8318 13.6516H18.8491L20.7531 7.88477H21.9291L23.8425 13.6516ZM22.1136 11.247L21.6136 9.74117C21.5607 9.58733 21.4616 9.22507 21.3153 8.6548H21.2976C21.2393 8.90007 21.1456 9.26233 21.0167 9.74117L20.5256 11.247H22.1136Z" fill="white"/>
<path d="M28.7389 11.5216C28.7389 12.2288 28.5429 12.7878 28.1509 13.1981C27.7998 13.5634 27.3638 13.7459 26.8434 13.7459C26.2816 13.7459 25.8781 13.5491 25.6323 13.1557H25.6145V15.3462H24.6669V10.8625C24.6669 10.4179 24.6549 9.96157 24.6318 9.49357H25.4652L25.5181 10.1527H25.5358C25.8518 9.65607 26.3314 9.4082 26.9749 9.4082C27.4781 9.4082 27.8981 9.6019 28.2341 9.98974C28.5709 10.378 28.7389 10.8885 28.7389 11.5216ZM27.7736 11.5554C27.7736 11.1506 27.6803 10.817 27.4927 10.5544C27.2878 10.2805 27.0127 10.1436 26.6678 10.1436C26.4341 10.1436 26.2216 10.2198 26.0318 10.3702C25.8416 10.5219 25.7172 10.7199 25.6589 10.9652C25.6296 11.0796 25.6149 11.1732 25.6149 11.2468V11.9402C25.6149 12.2426 25.7101 12.4979 25.9003 12.7063C26.0905 12.9147 26.3376 13.0187 26.6416 13.0187C26.9985 13.0187 27.2763 12.8844 27.4749 12.6166C27.6741 12.3484 27.7736 11.9948 27.7736 11.5554Z" fill="white"/>
<path d="M33.6448 11.5216C33.6448 12.2288 33.4488 12.7878 33.0563 13.1981C32.7056 13.5634 32.2696 13.7459 31.7492 13.7459C31.1874 13.7459 30.7839 13.5491 30.5385 13.1557H30.5208V15.3462H29.5732V10.8625C29.5732 10.4179 29.5612 9.96157 29.5381 9.49357H30.3714L30.4243 10.1527H30.4421C30.7576 9.65607 31.2372 9.4082 31.8812 9.4082C32.3839 9.4082 32.8039 9.6019 33.1408 9.98974C33.4763 10.378 33.6448 10.8885 33.6448 11.5216ZM32.6794 11.5554C32.6794 11.1506 32.5856 10.817 32.3981 10.5544C32.1932 10.2805 31.919 10.1436 31.5736 10.1436C31.3394 10.1436 31.1274 10.2198 30.9372 10.3702C30.747 10.5219 30.623 10.7199 30.5648 10.9652C30.5359 11.0796 30.5208 11.1732 30.5208 11.2468V11.9402C30.5208 12.2426 30.6159 12.4979 30.8052 12.7063C30.9954 12.9143 31.2425 13.0187 31.5474 13.0187C31.9043 13.0187 32.1821 12.8844 32.3808 12.6166C32.5799 12.3484 32.6794 11.9948 32.6794 11.5554Z" fill="white"/>
<path d="M39.1283 12.0344C39.1283 12.5249 38.9537 12.924 38.603 13.2321C38.2177 13.5688 37.6812 13.737 36.9919 13.737C36.3554 13.737 35.8452 13.6174 35.459 13.3777L35.6785 12.6077C36.0945 12.853 36.551 12.976 37.0483 12.976C37.4052 12.976 37.683 12.8972 37.8825 12.7403C38.0812 12.5834 38.1803 12.3728 38.1803 12.1102C38.1803 11.8762 38.0985 11.6791 37.9345 11.5192C37.7714 11.3593 37.499 11.2106 37.1185 11.0733C36.083 10.6967 35.5657 10.1451 35.5657 9.41966C35.5657 8.94559 35.747 8.55689 36.1101 8.25443C36.4719 7.95153 36.9545 7.80029 37.5581 7.80029C38.0963 7.80029 38.5434 7.89173 38.9003 8.07416L38.6634 8.82729C38.3301 8.65049 37.9532 8.56209 37.5314 8.56209C37.1981 8.56209 36.9377 8.64226 36.751 8.80173C36.5932 8.94429 36.5141 9.11806 36.5141 9.32389C36.5141 9.55183 36.6043 9.74033 36.7857 9.88853C36.9434 10.0255 37.2301 10.1737 37.6461 10.3336C38.155 10.5333 38.5288 10.7669 38.7692 11.0347C39.0088 11.3016 39.1283 11.6357 39.1283 12.0344Z" fill="white"/>
<path d="M42.2614 10.187H41.2169V12.2059C41.2169 12.7194 41.401 12.9759 41.7698 12.9759C41.9392 12.9759 42.0796 12.9616 42.1907 12.933L42.2169 13.6346C42.0303 13.7026 41.7845 13.7368 41.4801 13.7368C41.1058 13.7368 40.8134 13.6255 40.6023 13.4032C40.3921 13.1804 40.2863 12.8069 40.2863 12.2821V10.1861H39.6641V9.49275H40.2863V8.73139L41.2169 8.45752V9.49275H42.2614V10.187Z" fill="white"/>
<path d="M46.9737 11.538C46.9737 12.1772 46.7862 12.702 46.4119 13.1123C46.0195 13.5348 45.4986 13.7454 44.8493 13.7454C44.2235 13.7454 43.7253 13.5431 43.3537 13.1383C42.9822 12.7336 42.7964 12.2227 42.7964 11.6069C42.7964 10.9626 42.9875 10.4348 43.3711 10.0244C43.7537 9.6136 44.2702 9.4082 44.9195 9.4082C45.5453 9.4082 46.0488 9.61057 46.4288 10.0157C46.7924 10.4088 46.9737 10.9162 46.9737 11.538ZM45.9906 11.5679C45.9906 11.1844 45.9066 10.8555 45.7364 10.5812C45.5377 10.2493 45.2537 10.0838 44.8857 10.0838C44.5048 10.0838 44.2155 10.2497 44.0168 10.5812C43.8466 10.856 43.7626 11.1901 43.7626 11.5853C43.7626 11.9688 43.8466 12.2977 44.0168 12.5715C44.2217 12.9035 44.5079 13.069 44.8773 13.069C45.2391 13.069 45.5231 12.9 45.7279 12.5629C45.9026 12.2834 45.9906 11.951 45.9906 11.5679Z" fill="white"/>
<path d="M50.0538 10.3061C49.96 10.2892 49.86 10.2805 49.7551 10.2805C49.4218 10.2805 49.164 10.4031 48.9826 10.6488C48.8249 10.8655 48.7458 11.1394 48.7458 11.47V13.6518H47.7986L47.8075 10.8031C47.8075 10.3238 47.7955 9.88747 47.772 9.494H48.5973L48.632 10.2896H48.6582C48.7582 10.0162 48.916 9.79604 49.132 9.63094C49.3431 9.4823 49.5711 9.4082 49.8169 9.4082C49.9044 9.4082 49.9835 9.41427 50.0538 9.4251V10.3061Z" fill="white"/>
<path d="M54.2912 11.376C54.2912 11.5415 54.2801 11.681 54.2565 11.795H51.4139C51.425 12.2058 51.5623 12.52 51.8263 12.7366C52.0659 12.9303 52.3756 13.0274 52.7561 13.0274C53.177 13.0274 53.561 12.962 53.9063 12.8307L54.0548 13.472C53.6512 13.6436 53.1748 13.729 52.625 13.729C51.9636 13.729 51.4445 13.5392 51.0668 13.16C50.6899 12.7808 50.501 12.2717 50.501 11.6329C50.501 11.0059 50.6765 10.4837 51.0281 10.0673C51.3961 9.62269 51.8934 9.40039 52.5192 9.40039C53.1339 9.40039 53.5992 9.62269 53.9152 10.0673C54.1654 10.4205 54.2912 10.8573 54.2912 11.376ZM53.3876 11.1363C53.3939 10.8625 53.3321 10.6259 53.2036 10.4261C53.0396 10.1691 52.7876 10.0409 52.4485 10.0409C52.1388 10.0409 51.8868 10.1661 51.6943 10.4174C51.5365 10.6172 51.4428 10.8568 51.4139 11.1359H53.3876V11.1363Z" fill="white"/>
<path d="M21.8001 4.33694C21.8001 4.84698 21.6432 5.23091 21.3298 5.48874C21.0396 5.72664 20.6272 5.84581 20.093 5.84581C19.8281 5.84581 19.6014 5.83454 19.4116 5.81201V3.02524C19.6592 2.98624 19.9258 2.96631 20.2138 2.96631C20.7227 2.96631 21.1063 3.07421 21.365 3.29001C21.6547 3.53398 21.8001 3.88281 21.8001 4.33694ZM21.309 4.34951C21.309 4.01888 21.2192 3.76538 21.0396 3.58858C20.8601 3.41221 20.5978 3.32381 20.2525 3.32381C20.1058 3.32381 19.981 3.33334 19.8774 3.35328V5.47184C19.9347 5.48051 20.0396 5.48441 20.1921 5.48441C20.5485 5.48441 20.8236 5.38778 21.0174 5.19451C21.2112 5.00124 21.309 4.71958 21.309 4.34951Z" fill="white"/>
<path d="M24.4036 4.78288C24.4036 5.09705 24.3116 5.35445 24.1276 5.55638C23.9347 5.76395 23.6791 5.86752 23.36 5.86752C23.0525 5.86752 22.8076 5.76828 22.6249 5.56895C22.4427 5.37005 22.3516 5.11915 22.3516 4.81668C22.3516 4.50035 22.4453 4.24078 22.6338 4.03928C22.8222 3.83778 23.0756 3.73682 23.3947 3.73682C23.7022 3.73682 23.9493 3.83605 24.1365 4.03495C24.3142 4.22822 24.4036 4.47782 24.4036 4.78288ZM23.9205 4.79762C23.9205 4.60912 23.8787 4.44748 23.7956 4.31272C23.6978 4.14978 23.5587 4.06832 23.3778 4.06832C23.1907 4.06832 23.0485 4.14978 22.9507 4.31272C22.8671 4.44748 22.8258 4.61172 22.8258 4.80585C22.8258 4.99435 22.8676 5.15598 22.9507 5.29075C23.0516 5.45368 23.192 5.53515 23.3733 5.53515C23.5511 5.53515 23.6907 5.45238 23.7911 5.28642C23.8773 5.14905 23.9205 4.98612 23.9205 4.79762Z" fill="white"/>
<path d="M27.8959 3.77783L27.2404 5.82057H26.8137L26.5421 4.93353C26.4732 4.7121 26.4172 4.49197 26.3737 4.27357H26.3652C26.3248 4.49803 26.2688 4.71773 26.1968 4.93353L25.9084 5.82057H25.4768L24.8604 3.77783H25.339L25.5759 4.74893C25.6332 4.9786 25.6804 5.19743 25.7181 5.40457H25.7266C25.7612 5.23383 25.8186 5.0163 25.8995 4.75327L26.1968 3.77827H26.5764L26.8612 4.73247C26.9301 4.96517 26.9861 5.1892 27.0292 5.405H27.0421C27.0737 5.19483 27.1212 4.9708 27.1844 4.73247L27.4386 3.77827H27.8959V3.77783Z" fill="white"/>
<path d="M30.3106 5.82099H29.8448V4.65099C29.8448 4.29045 29.7043 4.11018 29.4226 4.11018C29.2843 4.11018 29.1728 4.15959 29.0861 4.25882C29.0003 4.35805 28.9568 4.47505 28.9568 4.60895V5.82055H28.491V4.36195C28.491 4.18255 28.4852 3.98799 28.4741 3.77738H28.8835L28.9052 4.09675H28.9181C28.9723 3.99752 29.0532 3.91562 29.1595 3.85019C29.2857 3.77392 29.427 3.73535 29.5817 3.73535C29.7772 3.73535 29.9399 3.79688 30.0692 3.92038C30.2301 4.07162 30.3106 4.29739 30.3106 4.59725V5.82099Z" fill="white"/>
<path d="M31.5952 5.82036H31.1299V2.84033H31.5952V5.82036Z" fill="white"/>
<path d="M34.3367 4.78288C34.3367 5.09705 34.2447 5.35445 34.0607 5.55638C33.8678 5.76395 33.6118 5.86752 33.2931 5.86752C32.9851 5.86752 32.7402 5.76828 32.558 5.56895C32.3758 5.37005 32.2847 5.11915 32.2847 4.81668C32.2847 4.50035 32.3784 4.24078 32.5669 4.03928C32.7553 3.83778 33.0087 3.73682 33.3273 3.73682C33.6353 3.73682 33.882 3.83605 34.0696 4.03495C34.2473 4.22822 34.3367 4.47782 34.3367 4.78288ZM33.8531 4.79762C33.8531 4.60912 33.8113 4.44748 33.7282 4.31272C33.6309 4.14978 33.4913 4.06832 33.3109 4.06832C33.1233 4.06832 32.9811 4.14978 32.8838 4.31272C32.8002 4.44748 32.7589 4.61172 32.7589 4.80585C32.7589 4.99435 32.8007 5.15598 32.8838 5.29075C32.9847 5.45368 33.1251 5.53515 33.3064 5.53515C33.4842 5.53515 33.6233 5.45238 33.7238 5.28642C33.8104 5.14905 33.8531 4.98612 33.8531 4.79762Z" fill="white"/>
<path d="M36.5911 5.82115H36.1729L36.1382 5.58585H36.1253C35.9822 5.77348 35.7782 5.86752 35.5133 5.86752C35.3155 5.86752 35.1555 5.80555 35.0351 5.68248C34.9258 5.57068 34.8711 5.43158 34.8711 5.26648C34.8711 5.01688 34.9778 4.82665 35.1924 4.69492C35.4066 4.56318 35.708 4.49862 36.096 4.50165V4.46352C36.096 4.19442 35.9511 4.06008 35.6609 4.06008C35.4542 4.06008 35.272 4.11078 35.1147 4.21132L35.02 3.91318C35.2146 3.79575 35.4551 3.73682 35.7386 3.73682C36.2862 3.73682 36.5609 4.01848 36.5609 4.58182V5.33408C36.5609 5.53818 36.5711 5.70068 36.5911 5.82115ZM36.1075 5.11915V4.80412C35.5938 4.79545 35.3369 4.93282 35.3369 5.21578C35.3369 5.32238 35.3662 5.40212 35.4262 5.45542C35.4862 5.50872 35.5626 5.53515 35.6538 5.53515C35.756 5.53515 35.8515 5.50352 35.9386 5.44068C36.0262 5.37742 36.08 5.29725 36.1 5.19888C36.1049 5.17678 36.1075 5.14992 36.1075 5.11915Z" fill="white"/>
<path d="M39.2383 5.82036H38.8249L38.8032 5.49233H38.7903C38.6583 5.74193 38.4334 5.86673 38.1174 5.86673C37.8649 5.86673 37.6547 5.7701 37.4881 5.57683C37.3214 5.38357 37.2383 5.13267 37.2383 4.82457C37.2383 4.49393 37.3285 4.22613 37.5098 4.0216C37.6854 3.83093 37.9005 3.7356 38.1565 3.7356C38.4378 3.7356 38.6347 3.8279 38.7467 4.01293H38.7556V2.84033H39.2218V5.27003C39.2218 5.46893 39.2272 5.65223 39.2383 5.82036ZM38.7556 4.9589V4.6183C38.7556 4.55937 38.7512 4.5117 38.7427 4.4753C38.7165 4.3661 38.6601 4.27423 38.5743 4.20013C38.4876 4.12603 38.3832 4.08877 38.2627 4.08877C38.0889 4.08877 37.9529 4.15593 37.8529 4.2907C37.7538 4.42547 37.7036 4.5975 37.7036 4.80766C37.7036 5.0096 37.7512 5.1734 37.8467 5.2995C37.9476 5.43383 38.0836 5.501 38.2538 5.501C38.4067 5.501 38.5289 5.4451 38.6218 5.33286C38.7116 5.2293 38.7556 5.1045 38.7556 4.9589Z" fill="white"/>
<path d="M43.2214 4.78288C43.2214 5.09705 43.1294 5.35445 42.9454 5.55638C42.7525 5.76395 42.4974 5.86752 42.1779 5.86752C41.8708 5.86752 41.6259 5.76828 41.4428 5.56895C41.2605 5.37005 41.1694 5.11915 41.1694 4.81668C41.1694 4.50035 41.2632 4.24078 41.4517 4.03928C41.6401 3.83778 41.8934 3.73682 42.213 3.73682C42.5201 3.73682 42.7677 3.83605 42.9543 4.03495C43.1321 4.22822 43.2214 4.47782 43.2214 4.78288ZM42.7388 4.79762C42.7388 4.60912 42.697 4.44748 42.6139 4.31272C42.5157 4.14978 42.377 4.06832 42.1957 4.06832C42.009 4.06832 41.8668 4.14978 41.7685 4.31272C41.685 4.44748 41.6437 4.61172 41.6437 4.80585C41.6437 4.99435 41.6854 5.15598 41.7685 5.29075C41.8694 5.45368 42.0099 5.53515 42.1912 5.53515C42.369 5.53515 42.509 5.45238 42.6094 5.28642C42.6952 5.14905 42.7388 4.98612 42.7388 4.79762Z" fill="white"/>
<path d="M45.7261 5.82099H45.2608V4.65099C45.2608 4.29045 45.1204 4.11018 44.8381 4.11018C44.6999 4.11018 44.5884 4.15959 44.5021 4.25882C44.4159 4.35805 44.3728 4.47505 44.3728 4.60895V5.82055H43.9066V4.36195C43.9066 4.18255 43.9012 3.98799 43.8901 3.77738H44.299L44.3208 4.09675H44.3337C44.3884 3.99752 44.4692 3.91562 44.575 3.85019C44.7017 3.77392 44.8426 3.73535 44.9977 3.73535C45.1928 3.73535 45.3555 3.79688 45.4848 3.92038C45.6461 4.07162 45.7261 4.29739 45.7261 4.59725V5.82099Z" fill="white"/>
<path d="M48.8605 4.11843H48.3476V5.11076C48.3476 5.36296 48.4387 5.48906 48.6191 5.48906C48.7027 5.48906 48.772 5.48213 48.8267 5.46783L48.8387 5.81233C48.7467 5.84613 48.6258 5.86303 48.4769 5.86303C48.2929 5.86303 48.1498 5.80843 48.0462 5.69923C47.9422 5.59003 47.8907 5.4063 47.8907 5.14846V4.11843H47.5845V3.77826H47.8907V3.40386L48.3471 3.26953V3.77783H48.86V4.11843H48.8605Z" fill="white"/>
<path d="M51.3264 5.82036H50.8602V4.65903C50.8602 4.29287 50.7197 4.10957 50.4384 4.10957C50.2224 4.10957 50.0748 4.21573 49.9939 4.42807C49.9802 4.4727 49.9722 4.5273 49.9722 4.59143V5.81993H49.5068V2.84033H49.9722V4.07143H49.9811C50.1277 3.8474 50.338 3.7356 50.6104 3.7356C50.8033 3.7356 50.9628 3.79713 51.0895 3.92063C51.2473 4.07447 51.3264 4.30327 51.3264 4.60573V5.82036Z" fill="white"/>
<path d="M53.8695 4.70314C53.8695 4.78461 53.8633 4.85308 53.8522 4.90898H52.4553C52.4615 5.11091 52.5282 5.26474 52.6575 5.37134C52.7757 5.46668 52.9282 5.51434 53.1148 5.51434C53.3215 5.51434 53.5099 5.48228 53.6797 5.41771L53.7526 5.73318C53.5539 5.81724 53.3202 5.85928 53.0495 5.85928C52.7251 5.85928 52.4695 5.76611 52.2846 5.57978C52.0988 5.39344 52.0068 5.14341 52.0068 4.82968C52.0068 4.52158 52.0926 4.26504 52.2655 4.06051C52.4459 3.84211 52.6899 3.73291 52.9979 3.73291C53.2993 3.73291 53.5282 3.84211 53.6828 4.06051C53.8077 4.23384 53.8695 4.44834 53.8695 4.70314ZM53.4251 4.58571C53.4286 4.45094 53.3979 4.33481 53.3348 4.23688C53.2539 4.11078 53.1308 4.04751 52.9642 4.04751C52.8122 4.04751 52.6882 4.10904 52.5935 4.23254C52.5162 4.33091 52.4704 4.44834 52.4553 4.58571H53.4251Z" fill="white"/>
</svg>
