<svg width="24" height="24" viewBox="0 0 24 24" fill="none" xmlns="http://www.w3.org/2000/svg">
<path d="M11.2222 19.1147L11.2208 19.1134C8.62564 16.7602 6.55287 14.878 5.11683 13.1223C3.69227 11.3807 2.99902 9.88574 2.99902 8.32422C2.99902 5.7965 4.97131 3.82422 7.49902 3.82422C8.93624 3.82422 10.3313 4.49815 11.2377 5.56256L11.999 6.45662L12.7604 5.56256C13.6668 4.49815 15.0618 3.82422 16.499 3.82422C19.0267 3.82422 20.999 5.7965 20.999 8.32422C20.999 9.88575 20.3058 11.3807 18.881 13.1239C17.4449 14.8808 15.3724 16.7651 12.7776 19.1232C12.7772 19.1235 12.7769 19.1238 12.7765 19.1241L12.0016 19.8242L11.2222 19.1147Z" stroke="#F5F3EC" stroke-width="2"/>
</svg>
