<svg width="10" height="10" viewBox="0 0 10 10" fill="none" xmlns="http://www.w3.org/2000/svg">
<path d="M0 7.66688H2.5M10 2.33312L7.5 2.33312M5 7.66688L10 7.66688M5 2.33312L0 2.33312M4.6875 7.66688C4.6875 8.40314 4.12786 9 3.4375 9C2.74714 9 2.1875 8.40314 2.1875 7.66688C2.1875 6.93062 2.74714 6.33377 3.4375 6.33377C4.12786 6.33377 4.6875 6.93062 4.6875 7.66688ZM5.3125 2.33312C5.3125 1.59686 5.87214 1 6.5625 1C7.25286 1 7.8125 1.59686 7.8125 2.33312C7.8125 3.06938 7.25286 3.66623 6.5625 3.66623C5.87214 3.66623 5.3125 3.06938 5.3125 2.33312Z" stroke="#757573"/>
</svg>
