<svg width="24" height="24" viewBox="0 0 24 24" fill="none" xmlns="http://www.w3.org/2000/svg">
<path d="M18.5787 9.00942C18.5757 8.99349 18.572 8.97772 18.5675 8.96215C18.3673 8.26886 17.8149 7.73011 17.1102 7.54034L17.1102 7.54032L17.1064 7.53933C16.8078 7.46145 16.3291 7.41103 15.8202 7.37496C15.2974 7.33791 14.6988 7.31343 14.1356 7.29718C13.5717 7.28091 13.0396 7.27279 12.6486 7.26873C12.4531 7.2667 12.2926 7.26568 12.1809 7.26517L12.0515 7.26473L12.0175 7.26467L12.0086 7.26466L12.0063 7.26466L12.0057 7.26466H12.0056L12.0054 7.26466L12.0031 7.26466L11.9943 7.26465L11.9603 7.26466L11.8311 7.26491C11.7196 7.26526 11.5593 7.26606 11.364 7.26785C10.9735 7.27142 10.4419 7.27896 9.87816 7.29484C9.31524 7.3107 8.71635 7.33499 8.19259 7.37236C7.68261 7.40874 7.20201 7.45998 6.90025 7.53974L6.90024 7.53973L6.89705 7.5406C6.19688 7.73064 5.64133 8.26818 5.4427 8.9635C5.43854 8.97807 5.43504 8.99282 5.43222 9.00771C5.23858 10.0291 5.14222 11.0634 5.14663 12.1028C5.14468 13.1348 5.24055 14.167 5.43214 15.182C5.43498 15.197 5.4385 15.2119 5.4427 15.2266C5.64133 15.9219 6.19656 16.4591 6.89543 16.6514L6.89542 16.6514L6.90183 16.6531C7.20042 16.731 7.67929 16.7814 8.18849 16.8175C8.71149 16.8545 9.3105 16.879 9.87396 16.8952C10.4382 16.9115 10.9707 16.9196 11.3619 16.9237C11.5576 16.9257 11.7182 16.9267 11.83 16.9272L11.9594 16.9277L11.9935 16.9277L12.0023 16.9278L12.0046 16.9278H12.0052H12.0054L12.0055 16.4278L12.0056 16.9278H12.0057H12.0063L12.0086 16.9278L12.0174 16.9277L12.0514 16.9277L12.1805 16.9272C12.2919 16.9267 12.4521 16.9257 12.6472 16.9237C13.0374 16.9196 13.5687 16.9115 14.1319 16.8952C14.6944 16.879 15.2928 16.8545 15.816 16.8175C16.3257 16.7814 16.8049 16.7309 17.1052 16.6534L17.1052 16.6534L17.1121 16.6515C17.8149 16.4593 18.3673 15.9219 18.5675 15.2278C18.5721 15.2122 18.5758 15.1963 18.5788 15.1803C18.7666 14.1657 18.8584 13.1339 18.8521 12.1023C18.8584 11.0648 18.7687 10.0312 18.5787 9.00942ZM13.0266 12.1013L11.2329 13.1047V11.0935L13.0266 12.1013Z" stroke="#171010" stroke-linejoin="round"/>
</svg>
