<svg width="24" height="24" viewBox="0 0 24 24" fill="none" xmlns="http://www.w3.org/2000/svg">
<path d="M10.088 8.87846V10.0547H8.4707C8.19456 10.0547 7.9707 10.2785 7.9707 10.5547V12.9278C7.9707 13.204 8.19456 13.4278 8.4707 13.4278H10.088V19.0587C10.088 19.3349 10.3118 19.5587 10.588 19.5587H13.0299C13.306 19.5587 13.5299 19.3349 13.5299 19.0587V13.428H15.1306C15.3831 13.428 15.596 13.2398 15.6269 12.9892L15.9196 10.6161C15.9372 10.4739 15.8929 10.331 15.798 10.2237C15.7031 10.1163 15.5667 10.0549 15.4234 10.0549H13.5299V8.87864C13.5299 8.87848 13.5299 8.87832 13.5299 8.87815C13.5341 8.81133 13.5537 8.67851 13.6215 8.57155C13.654 8.52026 13.6959 8.4774 13.7555 8.44551C13.8154 8.41348 13.9181 8.37928 14.0915 8.38228C14.0989 8.38241 14.1062 8.38237 14.1136 8.38217H15.5295C15.8057 8.38217 16.0295 8.15832 16.0295 7.88217V5.64708C16.0295 5.37094 15.8057 5.14708 15.5295 5.14708H13.3912L13.3892 5.14705L13.3707 5.14698C13.3559 5.14702 13.336 5.14729 13.3115 5.14809C13.2626 5.14969 13.1952 5.15343 13.1129 5.16181C12.9489 5.17853 12.7227 5.21403 12.4658 5.28953C11.9587 5.43853 11.3133 5.74942 10.8045 6.39515C10.7976 6.40244 10.7901 6.41067 10.782 6.41986C10.7552 6.45018 10.7219 6.49093 10.6844 6.54312C10.6093 6.64768 10.5183 6.79713 10.4302 6.99916C10.2549 7.40141 10.0957 8.00156 10.0885 8.85563C10.0881 8.8632 10.088 8.87081 10.088 8.87846Z" stroke="#171010" stroke-linejoin="round"/>
</svg>
