<svg width="24" height="24" viewBox="0 0 24 24" fill="none" xmlns="http://www.w3.org/2000/svg">
<path d="M11.9994 5.64697C10.2724 5.64697 10.0572 5.65531 9.38129 5.6839C8.70263 5.71726 8.24357 5.82249 7.83852 5.97975C7.42077 6.14336 7.06496 6.36058 6.71351 6.714C6.35969 7.06544 6.14049 7.42125 5.97926 7.83901C5.82201 8.24406 5.71677 8.70312 5.68342 9.38178C5.65284 10.0581 5.64648 10.2729 5.64648 11.9999C5.64648 13.7269 5.65482 13.9422 5.68342 14.618C5.71677 15.2947 5.82201 15.7558 5.97926 16.1608C6.14287 16.5786 6.36009 16.9344 6.71351 17.2858C7.06496 17.6396 7.42077 17.8589 7.83852 18.0201C8.24357 18.1753 8.70462 18.2826 9.38129 18.3159C10.0576 18.3465 10.2724 18.3529 11.9994 18.3529C13.7265 18.3529 13.9417 18.3445 14.6176 18.3159C15.2942 18.2826 15.7553 18.175 16.1603 18.0201C16.5781 17.8565 16.9339 17.6393 17.2853 17.2858C17.6392 16.9344 17.8584 16.5806 18.0196 16.1608C18.1749 15.7558 18.2821 15.2947 18.3154 14.618C18.346 13.9418 18.3524 13.7269 18.3524 11.9999C18.3524 10.2729 18.344 10.0577 18.3154 9.38178C18.2821 8.7051 18.1745 8.24168 18.0196 7.83901C17.856 7.42125 17.6388 7.06544 17.2853 6.714C16.9339 6.36018 16.5801 6.14098 16.1603 5.97975C15.7553 5.82249 15.2942 5.71726 14.6176 5.6839C13.9413 5.65333 13.7265 5.64697 11.9994 5.64697V5.64697ZM11.9994 6.79065C13.6955 6.79065 13.898 6.79898 14.5683 6.82758C15.1866 6.85657 15.5234 6.95981 15.7469 7.04718C16.0452 7.16274 16.2536 7.29934 16.4792 7.52252C16.7004 7.74371 16.837 7.95457 16.9526 8.2528C17.0399 8.47637 17.1432 8.81312 17.1722 9.43142C17.2008 10.1017 17.2091 10.3047 17.2091 12.0003C17.2091 13.696 17.2008 13.8989 17.1698 14.5692C17.1364 15.1875 17.0332 15.5243 16.9462 15.7478C16.8259 16.0461 16.6917 16.2545 16.4701 16.4801C16.2465 16.7013 16.0337 16.8379 15.7378 16.9534C15.517 17.0408 15.1755 17.1441 14.5548 17.173C13.8809 17.2016 13.6824 17.21 11.982 17.21C10.2815 17.21 10.0834 17.2016 9.40869 17.1707C8.79039 17.1373 8.44928 17.0341 8.2257 16.9471C7.9239 16.8268 7.71701 16.6925 7.49542 16.471C7.27185 16.2474 7.12968 16.0345 7.02008 15.7387C6.93113 15.5179 6.82947 15.1764 6.79651 14.5557C6.77388 13.8898 6.76315 13.6833 6.76315 11.9908C6.76315 10.2991 6.77388 10.0922 6.79651 9.41791C6.82947 8.79723 6.93113 8.45652 7.02008 8.23493C7.12968 7.93273 7.27225 7.72623 7.49542 7.50266C7.71661 7.28147 7.9239 7.13851 8.2257 7.02653C8.44928 6.93956 8.78205 6.83631 9.40273 6.80534C10.0766 6.78111 10.2752 6.77238 11.9732 6.77238L11.9994 6.79065ZM11.9994 8.73926C10.1962 8.73926 8.73797 10.1994 8.73797 12.0007C8.73797 13.804 10.1981 15.2622 11.9994 15.2622C13.8027 15.2622 15.2609 13.802 15.2609 12.0007C15.2609 10.1974 13.8007 8.73926 11.9994 8.73926ZM11.9994 14.1185C10.8288 14.1185 9.88165 13.1714 9.88165 12.0007C9.88165 10.83 10.8288 9.88293 11.9994 9.88293C13.1701 9.88293 14.1172 10.83 14.1172 12.0007C14.1172 13.1714 13.1701 14.1185 11.9994 14.1185ZM16.1548 8.609C16.1548 9.03113 15.8113 9.37185 15.3911 9.37185C14.969 9.37185 14.6283 9.03073 14.6283 8.609C14.6283 8.18926 14.9714 7.84775 15.3911 7.84775C15.8109 7.84775 16.1548 8.18926 16.1548 8.609Z" fill="#171010"/>
</svg>
