<svg width="24" height="24" viewBox="0 0 24 24" fill="none" xmlns="http://www.w3.org/2000/svg">
<path d="M18.5218 7.85918C18.4496 7.82885 18.3722 7.81621 18.2956 7.8212C18.3578 7.6896 18.4114 7.55299 18.4557 7.41215C18.5179 7.21423 18.4515 6.99844 18.2887 6.86982C18.1259 6.74119 17.9006 6.72647 17.7225 6.83281C17.3393 7.06152 16.9212 7.23777 16.4777 7.35479C15.9329 6.86191 15.2125 6.55859 14.4215 6.55859C12.6947 6.55859 11.3156 7.98953 11.3156 9.72784C11.3156 9.74604 11.3157 9.76418 11.3161 9.78227C9.54655 9.53887 7.98767 8.60005 6.90671 7.24327C6.80355 7.11378 6.64298 7.04376 6.4779 7.05625C6.31282 7.06875 6.16463 7.16215 6.08214 7.30569C5.81331 7.77346 5.66187 8.31522 5.66187 8.89942C5.66187 9.40738 5.77875 9.8873 5.98654 10.3128C5.9531 10.3237 5.92054 10.3382 5.88945 10.3563C5.73575 10.4459 5.64122 10.6104 5.64122 10.7883V10.8204C5.64122 11.7524 6.03555 12.5949 6.66701 13.1771C6.56453 13.3067 6.53231 13.4793 6.58248 13.638C6.84854 14.4796 7.45007 15.1732 8.23219 15.5459C7.63234 15.8265 6.96565 15.9826 6.26709 15.9826C6.07655 15.9826 5.891 15.9732 5.70788 15.9505C5.47703 15.922 5.25697 16.0564 5.17698 16.2748C5.09699 16.4932 5.17819 16.738 5.37289 16.8653C6.60805 17.6727 8.06947 18.1468 9.64844 18.1468C14.784 18.1468 17.558 13.7807 17.558 10.0543V10.0475C17.558 10.0174 17.558 9.98567 17.5578 9.95264C18.0295 9.5714 18.4393 9.11261 18.7713 8.60333C18.8522 8.47912 18.8739 8.32539 18.8304 8.18366C18.7869 8.04192 18.6827 7.92679 18.5461 7.86936L18.5218 7.85918Z" stroke="#171010" stroke-linejoin="round"/>
</svg>
