<svg width="18" height="19" viewBox="0 0 18 19" fill="none" xmlns="http://www.w3.org/2000/svg">
<path d="M4.501 16.4773C4.501 16.9873 5.0035 17.3473 5.491 17.1898L9.001 16.0198L12.511 17.1898C12.9985 17.3548 13.501 16.9948 13.501 16.4773V11.7298C14.431 10.6723 15.001 9.29228 15.001 7.76978C15.001 4.45478 12.316 1.76978 9.001 1.76978C5.686 1.76978 3.001 4.45478 3.001 7.76978C3.001 9.29228 3.571 10.6723 4.501 11.7298V16.4773ZM9.001 3.26978C11.4835 3.26978 13.501 5.28728 13.501 7.76978C13.501 10.2523 11.4835 12.2698 9.001 12.2698C6.5185 12.2698 4.501 10.2523 4.501 7.76978C4.501 5.28728 6.5185 3.26978 9.001 3.26978Z" fill="url(#paint0_linear_7089_83084)"/>
<path d="M9.001 10.0398L10.8166 11.1379C11.1491 11.3391 11.556 11.0417 11.4685 10.6654L10.9873 8.6004L12.5929 7.20915C12.886 6.9554 12.7285 6.47415 12.3435 6.44353L10.2304 6.26415L9.4035 4.3129C9.25475 3.95853 8.74725 3.95853 8.5985 4.3129L7.77163 6.25978L5.6585 6.43915C5.2735 6.46978 5.116 6.95103 5.40913 7.20478L7.01475 8.59602L6.5335 10.661C6.446 11.0373 6.85288 11.3348 7.18538 11.1335L9.001 10.0398Z" fill="url(#paint1_linear_7089_83084)"/>
<defs>
<linearGradient id="paint0_linear_7089_83084" x1="4.801" y1="4.08884" x2="14.681" y2="13.5979" gradientUnits="userSpaceOnUse">
<stop stop-color="#ECA323"/>
<stop offset="1" stop-color="#E38A37"/>
</linearGradient>
<linearGradient id="paint1_linear_7089_83084" x1="6.38043" y1="5.12047" x2="10.8057" y2="10.8621" gradientUnits="userSpaceOnUse">
<stop stop-color="#ECA323"/>
<stop offset="1" stop-color="#E38A37"/>
</linearGradient>
</defs>
</svg>
