<svg width="75" height="28" viewBox="0 0 75 28" fill="none" xmlns="http://www.w3.org/2000/svg">
<g clip-path="url(#clip0_7053_65947)">
<path fill-rule="evenodd" clip-rule="evenodd" d="M0 14C0 6.28285 6.28285 0 14 0C21.7171 0 28 6.28285 28 14C28 21.7171 21.7171 28 14 28C6.28285 28 0 21.7171 0 14ZM1.40312 14C1.40312 20.9454 7.05457 26.5969 14 26.5969C20.9454 26.5969 26.5969 20.9454 26.5969 14C26.5969 7.05457 20.9454 1.40312 14 1.40312C7.05457 1.40312 1.40312 7.05457 1.40312 14ZM13.9994 7.47552C15.8156 7.47552 17.3435 8.13031 18.466 9.38532V7.74835H20.1263V20.1971H18.466V18.5368C16.9459 20.3141 14.8802 20.5245 13.9994 20.5245C10.9515 20.5245 7.87244 18.2717 7.87244 13.9688C7.87244 10.1492 10.3903 7.47552 13.9994 7.47552ZM9.60295 13.8831C9.60295 16.3931 11.1464 18.9343 14.0929 18.9343H14.1007C17.1486 18.9343 18.5361 16.3152 18.5361 13.8831C18.5361 10.3519 15.8624 9.06573 14.0695 9.06573C11.8479 9.06573 9.60295 10.7183 9.60295 13.8831Z" fill="#171010"/>
<path fill-rule="evenodd" clip-rule="evenodd" d="M59.9445 6.11914H58.2451V8.78507H56.881V10.4064H58.2451V21.5378H59.9445V10.4064H62.0024V8.78507H59.9445V6.11914ZM41.3604 8.50488C43.2156 8.50488 44.7824 9.18306 45.9283 10.4615V8.78551H47.6277V21.5305H45.9283V19.8312C44.3771 21.6552 42.2568 21.8657 41.3604 21.8657C38.2502 21.8657 35.0931 19.5583 35.0931 15.1541C35.0931 11.241 37.6655 8.50488 41.3604 8.50488ZM36.8548 15.0606C36.8548 17.6318 38.4359 20.2343 41.4501 20.2365C44.5732 20.2343 45.9907 17.5462 45.9907 15.0606C45.9907 11.4514 43.2624 10.1341 41.4228 10.1341C39.1544 10.1341 36.8548 11.8256 36.8548 15.0606ZM51.993 9.72092C52.5933 8.9492 53.4741 8.50488 54.4719 8.50488H54.4797C54.7213 8.50488 55.3371 8.53606 55.8984 8.83228L56.1166 8.9492L55.2514 10.4926L55.0253 10.3289C54.9552 10.2744 54.7681 10.1341 54.2614 10.1341C52.2503 10.1341 51.993 12.5739 51.993 14.702V21.5305H50.2937V8.77771H51.993V9.72092ZM68.3782 8.50488C71.9016 8.50488 74.4583 11.3735 74.4583 15.31L74.4739 15.3022V15.5439H63.9116C64.0207 18.2332 65.9851 20.2287 68.5653 20.2287C70.3347 20.2287 71.8236 19.2621 72.6421 17.5706L72.759 17.3367L74.2167 18.1942L74.1076 18.3969C73.5619 19.4414 71.9171 21.8657 68.4717 21.8657C64.6833 21.8657 62.1421 19.192 62.1421 15.2165C62.1421 11.8802 64.2779 8.50488 68.3782 8.50488ZM68.0897 10.1419C65.9305 10.1419 64.1766 11.6775 63.7479 13.9225H72.3771C71.9873 11.6853 70.249 10.1419 68.0897 10.1419Z" fill="#171010"/>
</g>
<defs>
<clipPath id="clip0_7053_65947">
<rect width="74.4588" height="28" fill="white"/>
</clipPath>
</defs>
</svg>
