<svg width="34" height="34" viewBox="0 0 34 34" fill="none" xmlns="http://www.w3.org/2000/svg">
<rect width="34" height="34" rx="17" fill="#957A4F"/>
<path d="M19.9167 23.666H11.5834V12.8327C11.5834 12.3743 11.2084 11.9993 10.7501 11.9993C10.2917 11.9993 9.91675 12.3743 9.91675 12.8327V23.666C9.91675 24.5827 10.6667 25.3327 11.5834 25.3327H19.9167C20.3751 25.3327 20.7501 24.9577 20.7501 24.4993C20.7501 24.041 20.3751 23.666 19.9167 23.666ZM24.0834 20.3327V10.3327C24.0834 9.41602 23.3334 8.66602 22.4167 8.66602H14.9167C14.0001 8.66602 13.2501 9.41602 13.2501 10.3327V20.3327C13.2501 21.2493 14.0001 21.9993 14.9167 21.9993H22.4167C23.3334 21.9993 24.0834 21.2493 24.0834 20.3327ZM22.4167 20.3327H14.9167V10.3327H22.4167V20.3327Z" fill="#F5F3EC"/>
</svg>
